<svg width="360" height="58" viewBox="0 0 360 58" fill="white" xmlns="http://www.w3.org/2000/svg">
<path fill-rule="evenodd" clip-rule="evenodd" d="M159 32C169.5 39 178.5 39 178.5 39C178.5 39 192 40 200 32C204.141 27.8589 209.208 22 211.205 14.7033C212.797 8.89021 212.248 1.90445 212.055 -3.8147e-06L355 -3.8147e-06C357.761 -3.8147e-06 360 2.23857 360 5V53C360 55.7614 357.761 58 355 58H5C2.23858 58 0 55.7614 0 53V5C0 2.23857 2.23858 -3.8147e-06 5 -3.8147e-06L147.415 -3.8147e-06C147.153 1.70699 146.458 7.56635 148.04 14.1818C149.671 21 154.128 28.7521 159 32Z"/>
</svg>
